<?xml version="1.0" standalone="no"?>
<!DOCTYPE svg PUBLIC "-//W3C//DTD SVG 20010904//EN"
 "http://www.w3.org/TR/2001/REC-SVG-20010904/DTD/svg10.dtd">
<svg version="1.0" xmlns="http://www.w3.org/2000/svg"
 width="225.000000pt" height="225.000000pt" viewBox="0 0 225.000000 225.000000"
 preserveAspectRatio="xMidYMid meet">

<g transform="translate(0.000000,225.000000) scale(0.100000,-0.100000)"
fill="#5f57ffff" stroke="none">
<path d="M707 1127 c-230 -568 -417 -1035 -417 -1039 0 -5 376 -8 836 -8 792
0 836 1 832 18 -5 15 -828 2054 -832 2059 -1 1 -189 -462 -419 -1030z m670
-139 c134 -330 241 -603 239 -605 -2 -2 -106 124 -232 279 -126 155 -236 290
-244 301 -14 17 -31 -2 -259 -283 -134 -165 -246 -299 -248 -297 -2 2 103 267
233 588 130 321 240 595 245 608 5 13 12 21 16 17 3 -3 116 -277 250 -608z"/>
</g>
</svg>
